<svg width="32" height="32" viewBox="0 0 32 32" fill="none" xmlns="http://www.w3.org/2000/svg">
<g clip-path="url(#clip0_1_14)" filter="url(#filter0_d_1_14)">
<path d="M27.9765 7.05607C27.9203 5.78085 27.7141 4.90416 27.4187 4.14449C27.1139 3.33812 26.6451 2.61617 26.0308 2.01602C25.4307 1.40652 24.704 0.932921 23.9069 0.632936C23.1429 0.337529 22.2707 0.131312 20.9955 0.0750879C19.7108 0.0141019 19.3029 0 16.0445 0C12.786 0 12.3782 0.0141019 11.0982 0.0703262C9.823 0.126551 8.9463 0.332951 8.18682 0.628174C7.38026 0.932922 6.65832 1.40176 6.05817 2.01602C5.44867 2.61617 4.97525 3.34288 4.67509 4.13991C4.37968 4.90416 4.17346 5.77609 4.11724 7.0513C4.05625 8.33604 4.04215 8.7439 4.04215 12.0023C4.04215 15.2608 4.05625 15.6686 4.11248 16.9486C4.1687 18.2238 4.3751 19.1005 4.67051 19.8602C4.97525 20.6666 5.44867 21.3885 6.05817 21.9887C6.65832 22.5982 7.38503 23.0718 8.18206 23.3718C8.9463 23.6672 9.81824 23.8734 11.0936 23.9296C12.3734 23.986 12.7815 23.9999 16.0399 23.9999C19.2984 23.9999 19.7062 23.986 20.9862 23.9296C22.2614 23.8734 23.1381 23.6672 23.8976 23.3718C25.5105 22.7482 26.7857 21.4729 27.4093 19.8602C27.7045 19.096 27.9109 18.2238 27.9672 16.9486C28.0234 15.6686 28.0375 15.2608 28.0375 12.0023C28.0375 8.7439 28.0327 8.33604 27.9765 7.05607ZM25.8153 16.8549C25.7636 18.027 25.5667 18.6599 25.4026 19.0819C24.9994 20.1274 24.1695 20.9572 23.124 21.3605C22.702 21.5246 22.0645 21.7215 20.897 21.7729C19.6311 21.8293 19.2515 21.8433 16.0493 21.8433C12.847 21.8433 12.4626 21.8293 11.2013 21.7729C10.0292 21.7215 9.39628 21.5246 8.97433 21.3605C8.45402 21.1682 7.98042 20.8634 7.596 20.4649C7.19749 20.0758 6.89274 19.6069 6.70044 19.0866C6.53635 18.6647 6.33947 18.027 6.28801 16.8596C6.2316 15.5937 6.21768 15.2139 6.21768 12.0117C6.21768 8.80946 6.2316 8.42505 6.28801 7.16394C6.33947 5.99183 6.53635 5.3589 6.70044 4.93694C6.89274 4.41645 7.19749 3.94303 7.60077 3.55843C7.98976 3.15992 8.4586 2.85517 8.97909 2.66306C9.40104 2.49896 10.0387 2.30209 11.2061 2.25044C12.472 2.19422 12.8518 2.18011 16.0538 2.18011C19.2608 2.18011 19.6405 2.19422 20.9018 2.25044C22.0739 2.30209 22.7068 2.49896 23.1288 2.66306C23.6491 2.85517 24.1227 3.15992 24.5071 3.55843C24.9056 3.94761 25.2103 4.41645 25.4026 4.93694C25.5667 5.3589 25.7636 5.99641 25.8153 7.16394C25.8715 8.42981 25.8856 8.80946 25.8856 12.0117C25.8856 15.2139 25.8715 15.589 25.8153 16.8549Z" fill="white"/>
<path d="M16.0445 5.83716C12.6408 5.83716 9.87921 8.59856 9.87921 12.0024C9.87921 15.4063 12.6408 18.1677 16.0445 18.1677C19.4483 18.1677 22.2097 15.4063 22.2097 12.0024C22.2097 8.59856 19.4483 5.83716 16.0445 5.83716ZM16.0445 16.0017C13.8363 16.0017 12.0452 14.2107 12.0452 12.0024C12.0452 9.79411 13.8363 8.00317 16.0445 8.00317C18.2528 8.00317 20.0437 9.79411 20.0437 12.0024C20.0437 14.2107 18.2528 16.0017 16.0445 16.0017Z" fill="white"/>
<path d="M23.893 5.59312C23.893 6.38795 23.2485 7.03242 22.4535 7.03242C21.6587 7.03242 21.0142 6.38795 21.0142 5.59312C21.0142 4.7981 21.6587 4.15381 22.4535 4.15381C23.2485 4.15381 23.893 4.7981 23.893 5.59312Z" fill="white"/>
</g>
<defs>
<filter id="filter0_d_1_14" x="0" y="0" width="32" height="32" filterUnits="userSpaceOnUse" color-interpolation-filters="sRGB">
<feFlood flood-opacity="0" result="BackgroundImageFix"/>
<feColorMatrix in="SourceAlpha" type="matrix" values="0 0 0 0 0 0 0 0 0 0 0 0 0 0 0 0 0 0 127 0" result="hardAlpha"/>
<feOffset dy="4"/>
<feGaussianBlur stdDeviation="2"/>
<feComposite in2="hardAlpha" operator="out"/>
<feColorMatrix type="matrix" values="0 0 0 0 0 0 0 0 0 0 0 0 0 0 0 0 0 0 0.25 0"/>
<feBlend mode="normal" in2="BackgroundImageFix" result="effect1_dropShadow_1_14"/>
<feBlend mode="normal" in="SourceGraphic" in2="effect1_dropShadow_1_14" result="shape"/>
</filter>
<clipPath id="clip0_1_14">
<rect width="24" height="24" fill="white" transform="translate(4)"/>
</clipPath>
</defs>
</svg>
