<!-- Generated by IcoMoon.io -->
<svg version="1.1" xmlns="http://www.w3.org/2000/svg" width="1024" height="1024" viewBox="0 0 1024 1024">
<title></title>
<g id="icomoon-ignore">
</g>
<path fill="#f05032" d="M1004.629 466.347l-447.104-447.061c-25.771-25.728-67.499-25.728-93.355 0l-92.629 92.8 117.76 117.76c27.52-9.173 58.837-2.987 80.597 18.816 22.016 21.973 28.075 53.675 18.688 81.067l113.408 113.493c27.52-9.515 59.179-3.328 81.067 18.56 30.763 30.72 30.763 80.384 0 111.104-30.677 30.677-80.256 30.677-110.933 0-22.997-23.083-28.757-57.045-17.237-85.163l-106.197-105.643v278.4c7.509 3.669 14.592 8.661 20.821 14.848 30.421 30.763 30.421 80.341 0 110.933-30.677 30.763-80.597 30.763-111.317 0-30.677-30.677-30.677-80.171 0-110.848 7.765-7.68 16.512-13.483 25.813-17.323v-281.131c-9.259-3.883-18.091-9.472-25.6-17.109-23.253-23.253-28.843-57.259-16.896-85.717l-115.712-116.267-306.603 306.389c-25.6 25.813-25.6 67.584 0 93.397l447.147 447.019c25.771 25.771 67.499 25.771 93.269 0l445.013-445.013c25.813-25.728 25.813-67.499 0-93.312z"></path>
</svg>
